<svg width="10" height="18" viewBox="0 0 10 18" fill="none" xmlns="http://www.w3.org/2000/svg">
<path d="M0.416221 17.6035L0.416758 17.6041C0.617452 17.81 0.789376 17.9326 0.996711 17.9483C1.20553 17.9641 1.46352 17.8725 1.83758 17.6131C2.58558 17.0944 3.7601 15.9325 5.86896 13.7689C7.39278 12.2055 8.41556 11.1195 9.05725 10.3697C9.37818 9.99473 9.60269 9.7051 9.74672 9.48268C9.89243 9.25769 9.95 9.10987 9.95 9.01596C9.95 8.92173 9.8936 8.77374 9.75134 8.55004C9.61065 8.32882 9.39136 8.04152 9.07791 7.67115C8.45117 6.93062 7.45225 5.863 5.96419 4.3363L5.96401 4.33611C4.8692 3.20067 3.81619 2.15695 2.99842 1.38506C2.58948 0.999065 2.23972 0.681389 1.97316 0.454308C1.83982 0.340721 1.72781 0.250238 1.6399 0.185331C1.59593 0.152866 1.55849 0.127174 1.52777 0.108303C1.49724 0.0895519 1.47576 0.0790596 1.46231 0.0746059C1.14969 -0.00492668 0.797411 0.114714 0.52011 0.345873C0.242566 0.577232 0.0500002 0.91231 0.0500002 1.24793C0.0500002 1.27443 0.0650215 1.32372 0.104886 1.40021C0.143559 1.47441 0.201912 1.56746 0.27981 1.67882C0.435501 1.90139 0.666498 2.19316 0.966694 2.5469C1.5669 3.25414 2.44108 4.20597 3.53599 5.34152L7.03592 8.95676L7.06959 8.99154L7.03592 9.02631L3.53592 12.6416L3.5 12.6068L3.53592 12.6416C1.74856 14.4876 0.777107 15.5457 0.349096 16.2393C0.135415 16.5855 0.0626307 16.8326 0.0843172 17.0363C0.105906 17.2392 0.222305 17.4106 0.416221 17.6035Z" fill="#0754C7" stroke="#0754C7" stroke-width="0.1"/>
</svg>
