<svg width="10" height="18" viewBox="0 0 10 18" fill="none" xmlns="http://www.w3.org/2000/svg">
<path d="M9.58378 0.396486L9.58324 0.395935C9.38255 0.19003 9.21062 0.0674463 9.00329 0.0517282C8.79447 0.0358977 8.53648 0.127472 8.16242 0.386856C7.41442 0.905552 6.2399 2.06748 4.13104 4.23109C2.60722 5.79449 1.58444 6.88048 0.94275 7.63027C0.621815 8.00527 0.397309 8.2949 0.253278 8.51732C0.107572 8.74231 0.05 8.89013 0.05 8.98404C0.05 9.07827 0.106403 9.22626 0.248664 9.44996C0.389348 9.67118 0.608639 9.95848 0.922094 10.3289C1.54883 11.0694 2.54775 12.137 4.03581 13.6637L4.03599 13.6639C5.1308 14.7993 6.18381 15.8431 7.00158 16.6149C7.41052 17.0009 7.76028 17.3186 8.02684 17.5457C8.16018 17.6593 8.27219 17.7498 8.3601 17.8147C8.40407 17.8471 8.44151 17.8728 8.47223 17.8917C8.50276 17.9104 8.52424 17.9209 8.53769 17.9254C8.85031 18.0049 9.20259 17.8853 9.47989 17.6541C9.75743 17.4228 9.95 17.0877 9.95 16.7521C9.95 16.7256 9.93498 16.6763 9.89511 16.5998C9.85644 16.5256 9.79809 16.4325 9.72019 16.3212C9.5645 16.0986 9.3335 15.8068 9.03331 15.4531C8.4331 14.7459 7.55892 13.794 6.46401 12.6585L2.96408 9.04324L2.93041 9.00846L2.96408 8.97369L6.46408 5.35838L6.5 5.39316L6.46408 5.35838C8.25144 3.51238 9.22289 2.45426 9.6509 1.76075C9.86458 1.41452 9.93737 1.16744 9.91568 0.963662C9.89409 0.760802 9.77769 0.589399 9.58378 0.396486Z" fill="#0754C7" stroke="#0754C7" stroke-width="0.1"/>
</svg>
